<svg xmlns="http://www.w3.org/2000/svg" version="1.1" xmlns:xlink="http://www.w3.org/1999/xlink" xmlns:svgjs="http://svgjs.com/svgjs" width="512" height="512" x="0" y="0" viewBox="0 0 520 520" style="enable-background:new 0 0 512 512" xml:space="preserve" class=""><g><g xmlns="http://www.w3.org/2000/svg" id="_1-Check" data-name="1-Check"><path d="m189.546 440.694a10.041 10.041 0 0 1 -1.932-.188 9.929 9.929 0 0 1 -5.163-2.741l-155.522-155.522a10 10 0 0 1 0-14.143l60.241-60.241a10 10 0 0 1 14.142 0l88.223 88.223 213.152-213.154a10 10 0 0 1 14.143 0l60.241 60.241a10 10 0 0 1 0 14.143l-280.453 280.453a9.975 9.975 0 0 1 -7.072 2.929z" fill="#f0f8ff" data-original="#000000" class=""></path></g></g></svg>